<svg width="185" height="71" viewBox="0 0 185 71" fill="none" xmlns="http://www.w3.org/2000/svg">
<path fill-rule="evenodd" clip-rule="evenodd" d="M21.2159 62.2861L41.6942 66.6048V70.2822L21.2159 65.9635L0.729462 70.2822V66.6048L21.2159 62.2861Z" fill="white"/>
<path fill-rule="evenodd" clip-rule="evenodd" d="M16.8809 31.3979L18.9271 17.2729L21.216 1.47555L23.5048 17.2729L25.551 31.3979C24.1599 31.3005 22.7041 31.2437 21.216 31.2437C19.7278 31.2437 18.272 31.3005 16.8809 31.3979ZM21.216 32.4289C25.3243 32.3755 29.4227 32.8475 33.4124 33.8332V36.7557C25.3882 34.8615 17.0356 34.8615 9.01142 36.7557V33.8332C13.0031 32.842 17.1042 32.3646 21.216 32.4126M21.216 36.4715C26.8127 36.4715 31.8353 37.2833 35.2645 38.4685V40.0353C31.8434 38.8176 26.8127 38.0464 21.216 38.0464C15.6192 38.0464 10.5885 38.8582 7.16737 40.0353V38.5091C10.5885 37.2833 15.6111 36.5121 21.216 36.5121M21.216 39.2397C31.5279 39.2397 39.8826 41.8537 39.8826 45.0846C39.8826 46.1236 39.0253 47.0978 37.5129 47.942C35.1593 45.2469 24.2246 44.9872 21.216 44.9872C18.2073 44.9872 7.26444 45.2469 4.91089 47.942C3.40655 47.1303 2.54116 46.1236 2.54116 45.0846C2.54116 41.8374 10.904 39.2397 21.216 39.2397ZM14.0582 58.8687V51.1973C14.0706 51.0976 14.0706 50.9967 14.0582 50.8969C13.8318 50.0852 12.7399 49.8092 11.6319 50.1988C11.2053 50.3013 10.8182 50.5276 10.519 50.8496C10.2199 51.1715 10.0218 51.5748 9.94958 52.0091V59.7535L5.73586 60.6221V48.835C6.7064 47.3494 13.2575 46.2048 21.216 46.1886C29.1744 46.1724 35.7174 47.3494 36.6879 48.835V60.6221L32.5389 59.7454V52.001C32.4638 51.5679 32.2647 51.1662 31.966 50.8447C31.6673 50.5233 31.2818 50.296 30.8566 50.1907C29.7324 49.801 28.6325 50.1176 28.4303 50.8888C28.414 50.9883 28.414 51.0897 28.4303 51.1892V58.8605L23.7151 57.8702V51.4652C23.7151 50.8193 23.4595 50.1999 23.0044 49.7431C22.5494 49.2864 21.9322 49.0298 21.2887 49.0298C20.6452 49.0298 20.0281 49.2864 19.573 49.7431C19.118 50.1999 18.8624 50.8193 18.8624 51.4652V57.8702L14.1553 58.8605L14.0582 58.8687ZM41.6943 62.8789V0.282227H0.769928V62.8789L3.11542 62.3756L21.2564 58.5521L39.3893 62.3756L41.7348 62.8789H41.6943Z" fill="white"/>
<path d="M70.0502 44.7759C69.4766 44.7663 68.92 44.9718 68.4893 45.3523C68.1737 45.9934 68.0447 46.7109 68.1173 47.4223V53.1535C68.1173 53.2834 68.1173 53.4133 68.1173 53.5269C68.107 53.7989 68.08 54.07 68.0364 54.3387C67.9681 54.9809 67.7699 55.6025 67.4541 56.1652C67.0797 56.8233 66.5159 57.3525 65.8365 57.6832C64.8717 58.1384 63.8124 58.3555 62.747 58.3164C61.7257 58.3542 60.7119 58.1278 59.803 57.6589C59.1584 57.3178 58.6292 56.7923 58.2825 56.149C57.9936 55.6026 57.8046 55.0088 57.7244 54.3955C57.687 54.1399 57.6627 53.8825 57.6517 53.6243V46.5943C57.7167 46.1121 57.6229 45.6218 57.3847 45.198C56.9267 44.9218 56.3981 44.7863 55.8642 44.8084V44.3862H61.6956V44.784C61.1496 44.7611 60.6099 44.9086 60.1508 45.2061C59.8668 45.6275 59.746 46.1385 59.8111 46.643V53.8192C59.8111 54.0546 59.8111 54.2738 59.8596 54.4686C59.9089 54.9502 60.0402 55.4197 60.2478 55.8567C60.4838 56.3312 60.8555 56.7241 61.3154 56.9851C61.9522 57.3225 62.6664 57.4849 63.3859 57.4559C64.0418 57.517 64.702 57.3982 65.2959 57.1123C65.8899 56.8264 66.3954 56.384 66.7585 55.8324C66.9249 55.5375 67.0398 55.2163 67.0982 54.8826C67.2073 54.2665 67.2561 53.6411 67.2438 53.0155V47.4385C67.3211 46.7013 67.1685 45.9581 66.8071 45.3117C66.3919 44.949 65.8523 44.7626 65.3027 44.7921V44.3862H70.0745V44.784L70.0502 44.7759Z" fill="white"/>
<path d="M84.4707 44.7759C83.9486 44.7779 83.44 44.9424 83.0149 45.2467C82.6028 45.892 82.4283 46.6616 82.5216 47.4223V58.3002H82.1657L73.1073 46.9352H73.0669V54.9962C72.9939 55.7217 73.1345 56.4527 73.4713 57.0988C73.6735 57.2925 73.9142 57.4411 74.1776 57.5349C74.4411 57.6286 74.7213 57.6653 74.9999 57.6427V58.0323H70.1472V57.6427C70.734 57.6827 71.3136 57.4936 71.7648 57.115C72.1133 56.4671 72.2571 55.7281 72.1772 54.9962V45.9124C71.8852 45.5368 71.5326 45.213 71.1339 44.9545C70.8205 44.8186 70.48 44.7574 70.1391 44.7759V44.3862H73.6573L81.551 54.3306H81.6481V47.4304C81.7361 46.6741 81.5741 45.9097 81.1871 45.2548C80.7474 44.9308 80.2117 44.7649 79.6666 44.784V44.3862H84.5192V44.784L84.4707 44.7759Z" fill="white"/>
<path d="M84.6567 57.6751C85.2245 57.7208 85.7919 57.5813 86.2743 57.2774C86.5607 56.8478 86.6842 56.3293 86.6221 55.8161V46.6349C86.6925 46.1164 86.5622 45.5906 86.2582 45.1655C85.7689 44.8787 85.2062 44.7432 84.6406 44.7759V44.3862H90.755V44.784C90.2118 44.7524 89.67 44.8674 89.1859 45.1168C89.0086 45.3253 88.8773 45.569 88.8006 45.8321C88.7239 46.0951 88.7037 46.3715 88.7411 46.643V55.8243C88.7039 56.0926 88.7235 56.3658 88.7988 56.626C88.874 56.8862 89.0032 57.1276 89.1778 57.3342C89.6581 57.6031 90.2066 57.7245 90.755 57.6832V58.0729H84.6406V57.6832L84.6567 57.6751Z" fill="white"/>
<path d="M105.006 44.7759C104.609 44.768 104.223 44.9067 103.922 45.1655C103.564 45.625 103.29 46.1444 103.113 46.6998L98.5517 58.3002H98.2363L93.1733 46.9352C92.9236 46.2882 92.5683 45.6873 92.1219 45.1574C91.808 44.887 91.4028 44.7476 90.9896 44.7678V44.3862H96.4651V44.784C95.4379 44.8327 94.9203 45.0925 94.9203 45.5471C94.9601 45.8284 95.042 46.102 95.1629 46.3589C95.2843 46.6511 95.4864 47.1138 95.7614 47.747L98.8752 54.7284L102.054 46.7566C102.054 46.6836 102.054 46.6105 102.11 46.5537C102.206 46.2924 102.266 46.0193 102.288 45.7419C102.305 45.5763 102.27 45.4096 102.189 45.2644C102.108 45.1192 101.985 45.0025 101.835 44.9301C101.683 44.8653 101.523 44.8243 101.358 44.8084L100.792 44.7597V44.3862H105.014V44.784L105.006 44.7759Z" fill="white"/>
<path d="M116.426 58.0648H105.281V57.6751C105.767 57.6912 106.248 57.5642 106.664 57.3098C106.99 56.8851 107.135 56.3481 107.068 55.8161V46.6349C107.103 46.3683 107.084 46.0975 107.014 45.8382C106.943 45.5789 106.821 45.3365 106.656 45.125C106.235 44.8917 105.761 44.7714 105.281 44.7759V44.3862H116.207L116.28 47.3492H115.754C115.729 46.6727 115.438 46.0337 114.946 45.5714C114.223 45.2364 113.425 45.0992 112.633 45.1737H109.858C109.764 45.1626 109.669 45.1734 109.58 45.2054C109.491 45.2373 109.41 45.2895 109.344 45.3579C109.279 45.4262 109.23 45.5089 109.201 45.5995C109.172 45.69 109.165 45.786 109.179 45.8799V50.4665H112.341C112.955 50.5361 113.574 50.3867 114.088 50.0444C114.402 49.592 114.585 49.0606 114.614 48.5101H115.091V53.3159H114.614C114.603 52.7251 114.398 52.1545 114.032 51.6923C113.522 51.3922 112.93 51.2615 112.341 51.3189H109.179V56.4412C109.179 56.8715 109.3 57.1231 109.559 57.2043C110.45 57.3089 111.348 57.3442 112.244 57.3098C113.239 57.3716 114.232 57.1789 115.132 56.7497C115.875 56.2165 116.439 55.4691 116.749 54.6066H117.324L116.401 58.0973L116.426 58.0648Z" fill="white"/>
<path d="M130.693 58.0651H127.377L122.524 51.7007H121.367V55.7596C121.306 56.2519 121.414 56.7505 121.675 57.1722C122.117 57.5023 122.662 57.6609 123.212 57.6186V58.0083H117.51V57.6186C117.781 57.6399 118.054 57.6063 118.313 57.5198C118.571 57.4334 118.809 57.2958 119.014 57.1153C119.235 56.6047 119.321 56.0456 119.265 55.4918V46.5621C119.328 46.0563 119.211 45.5442 118.933 45.1172C118.51 44.8411 118.014 44.697 117.51 44.7032V44.3866H123.171C123.713 44.3821 124.254 44.4228 124.789 44.5083C125.383 44.5935 125.962 44.7601 126.511 45.0035C127.057 45.2427 127.529 45.6239 127.878 46.1075C128.259 46.6685 128.452 47.3368 128.428 48.0152C128.445 48.6021 128.297 49.1819 127.999 49.6875C127.742 50.1072 127.386 50.4581 126.964 50.7104C126.579 50.9385 126.166 51.1159 125.735 51.238C125.552 51.2973 125.365 51.346 125.177 51.3841L124.926 51.4328L124.708 51.4815L128.954 56.7094C129.161 56.9944 129.429 57.2296 129.739 57.398C130.048 57.5665 130.39 57.664 130.741 57.6836V58.0732L130.693 58.0651ZM121.327 50.9782H122.031C122.306 50.9782 122.564 50.9782 122.839 50.9295C123.392 50.8868 123.936 50.7694 124.457 50.5805C124.95 50.4107 125.385 50.1039 125.711 49.6956C126.058 49.1943 126.234 48.5932 126.212 47.9828C126.234 47.4107 126.085 46.8451 125.783 46.3592C125.524 46.0005 125.171 45.7198 124.764 45.5474C124.387 45.3799 123.986 45.2705 123.575 45.2227C123.406 45.2137 123.236 45.2137 123.066 45.2227H122.678C121.82 45.2227 121.4 45.4662 121.4 45.9695V51.0513L121.327 50.9782Z" fill="white"/>
<path d="M140.034 48.5023H139.525C139.352 47.5886 138.923 46.7435 138.287 46.0669C137.957 45.7061 137.556 45.4185 137.109 45.2228C136.662 45.027 136.179 44.9275 135.691 44.9304C135.179 44.9144 134.677 45.0813 134.276 45.4013C134.062 45.5747 133.892 45.7955 133.778 46.0463C133.665 46.297 133.611 46.5709 133.62 46.8462C133.644 47.2278 133.752 47.5993 133.936 47.9335C134.121 48.2678 134.378 48.5564 134.688 48.7783C135.04 49.0533 135.407 49.308 135.788 49.5414L137.058 50.2963C137.597 50.6048 138.018 50.8754 138.319 51.1081C138.714 51.3848 139.082 51.6973 139.419 52.0417C140.103 52.7198 140.49 53.6425 140.495 54.6069C140.499 55.0806 140.406 55.5501 140.221 55.9859C140.035 56.4217 139.763 56.8145 139.419 57.1397C138.988 57.5486 138.48 57.8665 137.924 58.0742C137.368 58.282 136.777 58.3755 136.184 58.3492C135.826 58.3495 135.468 58.3142 135.117 58.2437C134.819 58.178 134.525 58.0967 134.235 58.0001L133.54 57.7566C133.365 57.6939 133.183 57.6556 132.998 57.643C132.569 57.643 132.351 57.8703 132.351 58.333H131.898L131.283 53.9412H131.76V53.9899V54.0386V54.1442C131.793 54.2308 131.825 54.3119 131.857 54.3877C131.938 54.5825 132.027 54.7611 132.108 54.9316C132.332 55.364 132.603 55.7697 132.917 56.1412C133.258 56.5596 133.675 56.9094 134.146 57.1721C134.695 57.4607 135.306 57.6085 135.925 57.6024C136.267 57.62 136.609 57.5647 136.929 57.4402C137.248 57.3156 137.537 57.1247 137.778 56.8799C137.979 56.6727 138.138 56.4277 138.245 56.1588C138.351 55.89 138.404 55.6026 138.4 55.3131C138.427 54.7232 138.234 54.1445 137.858 53.6896C137.015 52.8907 136.062 52.2181 135.028 51.6926C134.47 51.3679 134.033 51.1 133.717 50.8808C133.353 50.646 133.015 50.374 132.707 50.069C132.111 49.42 131.789 48.5646 131.809 47.6824C131.787 47.1803 131.881 46.6799 132.085 46.2207C132.288 45.7614 132.595 45.3559 132.981 45.036C133.704 44.4509 134.61 44.143 135.537 44.1674C135.839 44.1722 136.14 44.2076 136.435 44.2729C136.71 44.3365 136.98 44.4179 137.244 44.5164L137.923 44.76C138.079 44.82 138.242 44.8556 138.408 44.8655C138.517 44.8713 138.625 44.8507 138.723 44.8055C138.822 44.7602 138.908 44.6917 138.975 44.6057C139.02 44.5313 139.058 44.4525 139.088 44.3703L139.128 44.1674H139.557L140.01 48.5753L140.034 48.5023Z" fill="white"/>
<path d="M141.7 57.6751C142.268 57.7208 142.835 57.5813 143.318 57.2774C143.608 56.8493 143.731 56.3295 143.666 55.8161V46.6349C143.736 46.1164 143.606 45.5906 143.302 45.1655C142.812 44.8787 142.25 44.7432 141.684 44.7759V44.3862H147.798V44.784C147.255 44.7524 146.713 44.8674 146.229 45.1168C146.053 45.3259 145.924 45.57 145.848 45.833C145.773 46.096 145.754 46.3721 145.793 46.643V55.8243C145.754 56.092 145.773 56.3649 145.847 56.6251C145.92 56.8853 146.048 57.1269 146.221 57.3342C146.702 57.6031 147.25 57.7245 147.798 57.6832V58.0729H141.684V57.6832L141.7 57.6751Z" fill="white"/>
<path d="M157.002 58.0651H150.993V57.6754C151.875 57.6348 152.433 57.4644 152.659 57.1721C152.895 56.6658 152.984 56.1034 152.918 55.5486V45.247H151.818C151.013 45.1635 150.201 45.3337 149.497 45.7341C148.953 46.3311 148.615 47.0884 148.534 47.8934H148.041L148.162 44.3784H159.776L159.914 47.8934H159.404C159.348 47.0846 159.017 46.3196 158.466 45.726C157.755 45.3357 156.944 45.1688 156.137 45.247H155.021V55.8002C154.957 56.3058 155.081 56.8171 155.369 57.2371C155.846 57.5552 156.415 57.7038 156.986 57.6592V58.0489L157.002 58.0651Z" fill="white"/>
<path d="M174.278 44.7759C174.087 44.7898 173.897 44.8224 173.712 44.8733C173.497 44.9356 173.295 45.0344 173.113 45.1655C172.438 45.7155 171.868 46.3838 171.431 47.1382L168.382 51.7978V55.8567C168.313 56.3777 168.443 56.9056 168.746 57.3342C169.277 57.6482 169.896 57.7819 170.509 57.7157V58.1054H164.201V57.7157C165.155 57.7157 165.753 57.5371 166.004 57.2368C166.254 56.7349 166.353 56.1705 166.287 55.6132V52.0251L163.586 48.0555C162.977 47.0687 162.27 46.1466 161.475 45.3035C161.134 45.0063 160.704 44.832 160.254 44.8084V44.3862H166.012V44.784C165.042 44.784 164.556 45.0357 164.556 45.4253C164.583 45.7507 164.704 46.0611 164.904 46.3183L167.953 50.8967L171.099 45.8718C171.153 45.7431 171.18 45.6052 171.18 45.4659C171.182 45.3302 171.137 45.1982 171.053 45.0918C170.969 44.9854 170.851 44.9111 170.719 44.8814C170.569 44.8384 170.414 44.8112 170.258 44.8002H170.008H169.805V44.3862H174.318V44.784L174.278 44.7759Z" fill="white"/>
<path d="M71.87 7.37726H82.9746V8.18904C81.935 8.23954 80.9093 8.45037 79.9336 8.81411C78.666 9.53305 77.515 10.4419 76.5205 11.5092L68.4812 19.5053L80.2248 32.1448C80.7097 32.669 81.2343 33.1548 81.7938 33.5979C82.7048 34.3461 83.852 34.7434 85.0289 34.7181V35.5299H72.0884V34.7181C74.0699 34.6532 75.0647 34.296 75.0647 33.6628C74.9522 33.1295 74.7137 32.6311 74.3692 32.2097C73.8882 31.4979 73.3699 30.8124 72.8163 30.1559C72.2825 29.5065 71.676 28.8165 70.9966 28.0777L65.0197 22.0787L63.9278 22.9716V30.9271C63.9278 32.4289 64.1462 33.4193 64.591 33.8901C65.0358 34.3609 66.1277 34.7019 67.7534 34.7019V35.5137H55.8238V34.7019C57.4414 34.6207 58.509 34.3204 58.9619 33.8089C59.4148 33.2975 59.6251 32.1854 59.6251 30.4076V12.0044C59.6251 10.4377 59.3501 9.41483 58.8163 8.92776C58.2825 8.44069 57.3848 8.29457 55.84 8.18092V7.36914H67.8989V8.18092C66.2167 8.29457 65.1572 8.56246 64.7123 8.99271C64.2675 9.42295 63.9925 10.4539 63.9925 12.0044V20.723L67.2276 17.833C68.2305 16.9238 69.0636 16.1526 69.7268 15.5276C71.2149 14.1719 72.3068 13.1409 72.9619 12.4184C74.1589 11.1764 74.7574 10.2023 74.7574 9.51225C74.7574 8.82223 73.803 8.27022 71.8862 8.18092V7.36914L71.87 7.37726Z" fill="white"/>
<path d="M85.5141 34.71C87.2773 34.71 88.4176 34.4015 88.9272 33.8982C89.4367 33.3949 89.6308 32.4289 89.6308 30.8946V12.0044C89.6308 10.4377 89.3801 9.43919 88.8867 8.99271C88.3934 8.54623 87.2692 8.27022 85.5141 8.18092V7.36914H98.0907V8.18092C96.4246 8.25398 95.3489 8.48128 94.8556 8.87094C94.3622 9.2606 93.9416 10.3971 93.9416 12.0044V30.8946C93.9416 32.5182 94.2409 33.5167 94.8313 34.0038C95.4217 34.4908 96.4488 34.6694 98.0664 34.71V35.5218H85.5141V34.71Z" fill="white"/>
<path d="M135.206 8.18092C134.207 8.16996 133.222 8.42186 132.351 8.91153C131.811 9.40401 131.542 10.435 131.542 12.0044V30.8946C131.542 32.4478 131.811 33.4707 132.351 33.9632C132.795 34.3609 133.742 34.6126 135.206 34.71V35.5218H123.341V34.71C124.958 34.6288 126.042 34.3285 126.503 33.8171C126.964 33.3056 127.207 32.1935 127.207 30.4157V11.3388H127.118L116.345 35.5218H115.771L105.256 12.3129H105.103V29.2711C105.103 31.4142 105.386 32.8591 105.912 33.5897C106.437 34.3204 107.529 34.6451 109.147 34.71V35.5218H99.1987V34.71C100.873 34.5964 101.957 34.2392 102.434 33.6303C102.911 33.0215 103.243 31.4872 103.243 29.2711V12.0044C103.243 10.4187 102.973 9.38777 102.434 8.91153C101.973 8.52187 100.905 8.27834 99.2553 8.18092V7.36914H107.65L117.429 28.8246L126.778 7.36914H135.214V8.18092H135.206Z" fill="white"/>
<path d="M159.485 35.5218H136.645V34.71C137.649 34.7411 138.64 34.4818 139.5 33.9632C140.04 33.4707 140.309 32.4478 140.309 30.8946V12.0044C140.309 10.4404 140.04 9.40942 139.5 8.91153C138.637 8.4235 137.661 8.17157 136.67 8.18092V7.36914H159.146L159.291 13.4494H158.159C157.86 11.5661 157.294 10.3484 156.485 9.79637C155.676 9.24436 154.099 8.98459 151.729 8.98459H146.019C145.825 8.9595 145.627 8.98018 145.442 9.04498C145.257 9.10978 145.09 9.21693 144.953 9.35793C144.817 9.49893 144.715 9.66991 144.656 9.85732C144.596 10.0447 144.581 10.2434 144.612 10.4377V19.8706H151.131C152.918 19.8706 154.115 19.5784 154.705 18.9939C155.296 18.4094 155.514 17.4596 155.805 15.8442H156.776V25.7154H155.805C155.539 24.0026 155.142 22.9067 154.6 22.4683C154.058 22.03 152.878 21.7296 151.131 21.7052L144.612 21.6241V32.1772C144.612 33.0702 144.879 33.5816 145.421 33.7359C147.253 33.9592 149.1 34.0352 150.945 33.9632C153.589 33.9632 155.571 33.5816 156.881 32.8023C158.416 31.71 159.583 30.1757 160.229 28.4025H161.41L159.51 35.5867L159.485 35.5218Z" fill="white"/>
<path d="M162.462 7.37712H173.647C176.34 7.26043 179.013 7.88353 181.379 9.17928C182.418 9.75321 183.28 10.6027 183.87 11.6349C184.461 12.6671 184.757 13.8423 184.727 15.0322C184.748 16.3888 184.399 17.7251 183.716 18.8963C183.46 19.2942 183.176 19.6739 182.867 20.0328L182.147 20.7391C180.39 22.433 177.397 23.28 173.17 23.28C172.305 23.28 171.358 23.28 170.339 23.1582V30.9026C170.339 32.4369 170.59 33.4435 171.099 33.9306C171.609 34.4176 172.717 34.6774 174.335 34.7423V35.5541H162.462V34.7423C164.128 34.6206 165.171 34.2553 165.584 33.6464C165.867 33.2162 166.012 32.1446 166.012 30.448V12.0043C166.012 10.4944 165.81 9.52023 165.398 9.07375C164.985 8.62727 163.998 8.33502 162.462 8.18079V7.369V7.37712ZM170.339 21.4453C171.183 21.5316 172.031 21.5749 172.879 21.5752H173.688L174.699 21.4697C175.543 21.3812 176.364 21.142 177.125 20.7634C178 20.3406 178.74 19.6796 179.26 18.8557C179.901 17.7163 180.214 16.4209 180.166 15.1134C180.212 13.8632 179.864 12.6303 179.171 11.5903C178.586 10.7659 177.774 10.1311 176.834 9.76376C175.988 9.39416 175.09 9.15601 174.173 9.05751C173.801 9.05751 173.364 8.98445 172.992 8.96821H172.127C170.962 8.96821 170.388 9.45528 170.388 10.4213V21.4616L170.339 21.4453Z" fill="white"/>
</svg>
