<svg width="157" height="50" viewBox="0 0 157 50" fill="none" xmlns="http://www.w3.org/2000/svg">
<g clip-path="url(#clip0_699_3226)">
<path d="M19.638 25.6393V22.4685H19.6962H22.2303V24.0135H20.2424V25.6587L39.3128 33.3418V0.408203H0.00195312V33.442L19.6412 25.6425L19.638 25.6393ZM26.9688 7.21537H28.8758V14.307C28.8758 16.4532 30.2431 17.7784 32.0241 17.7784C33.805 17.7784 35.1723 16.4694 35.1723 14.3231V7.22183H37.0793V14.2553C37.0793 17.9368 34.7456 19.9247 32.0273 19.9247C29.309 19.9247 26.9753 17.9368 26.9753 14.2553V7.22183L26.9688 7.21537ZM16.089 7.21537H18.3128L24.1309 16.4112V7.22183H26.0347V19.4366H23.8206L18.0025 10.2408V19.4366H16.089V7.21537ZM2.92716 7.21537H5.37076L8.92625 15.3995C10.0996 12.6585 11.247 9.88522 12.3783 7.21537H14.7411L15.1613 19.4366H13.2543L12.9634 10.4153L9.55331 18.3732H8.19899L4.70491 10.4347L4.414 19.4398H2.50696L2.911 7.22506L2.92716 7.21537Z" fill="white"/>
<path d="M2.43909 39.1641H0.00195312V49.9986H2.56191V39.1705H2.43585" fill="white"/>
<path d="M12.9505 39.1641H10.5586V49.9922H13.0377V39.1641H12.9537" fill="white"/>
<path d="M18.0195 39.1653H15.8184V49.9934H18.2975V39.1977H18.2781C18.1919 39.196 18.1062 39.1841 18.0228 39.1621" fill="white"/>
<path d="M21.4246 39.1653C21.3414 39.1885 21.2556 39.2005 21.1692 39.2009H21.0723V49.9967H23.5482V39.1621H21.4246V39.1653Z" fill="white"/>
<path d="M26.3301 39.1641V49.9986H28.806V39.1673H26.3301V39.1641Z" fill="white"/>
<path d="M31.7236 39.1712H31.5879V49.9993H34.067V39.168H31.7236" fill="white"/>
<path d="M36.9769 39.1712H36.8477V49.9993H39.3268V39.168H36.9769" fill="white"/>
<path d="M7.67455 39.1641H5.29883V49.9922H7.77475V39.1641H7.67132" fill="white"/>
<path d="M54.1081 4.00263L50.2908 12.9075H48.7684L44.8412 4.02202L44.518 14.097H42.375L42.8404 0.427734H45.5749L49.5797 9.58476C50.8985 6.51733 52.1882 3.41435 53.4585 0.427734H56.1122L56.5776 14.097H54.4314L54.1081 4.00263Z" fill="white"/>
<path d="M67.0244 11.5791H61.0641L60.1623 14.097H57.9902L62.8645 0.427734H65.2952L70.1759 14.097H67.9133L67.0115 11.5791H67.0244ZM61.9174 9.17749H66.1679L64.041 3.23335L61.9142 9.19042L61.9174 9.17749Z" fill="white"/>
<path d="M82.4485 17.3996C82.0301 17.3816 81.6205 17.2728 81.2483 17.0808C80.876 16.8888 80.5499 16.6182 80.2926 16.2877L78.6474 14.413C78.3403 14.469 78.0286 14.495 77.7165 14.4905C73.8216 14.4905 71.252 11.1128 71.252 7.12743C71.252 2.63458 74.1836 0.0390625 77.7165 0.0390625C81.2494 0.0390625 84.181 2.62488 84.181 7.12743C84.181 9.86193 82.9851 12.2991 80.9843 13.5532L81.495 14.0994C81.9831 14.6263 82.4227 14.8687 82.8817 14.8687C83.3406 14.8687 83.7511 14.594 84.1746 14.3225L84.821 16.4719C84.1346 17.0129 83.3036 17.339 82.4324 17.4093M73.4467 7.11127C73.4467 10.0591 75.4183 12.0922 77.7133 12.0922C80.0082 12.0922 81.9799 10.0623 81.9799 7.11127C81.9799 4.16021 79.9629 2.44387 77.7133 2.44387C75.4636 2.44387 73.4467 4.16344 73.4467 7.11127Z" fill="white"/>
<path d="M94.294 3.51348C93.1004 2.84375 91.7665 2.46294 90.3992 2.40158C89.0642 2.40158 88.0105 2.81208 88.0105 3.8658C88.0105 5.17487 89.6848 5.44638 91.4238 5.99586C93.3308 6.6003 95.3348 7.51826 95.3348 10.1752C95.3348 12.8321 93.0916 14.5678 90.4476 14.5678C88.7957 14.5275 87.1775 14.0919 85.7285 13.2976L86.2554 10.896C87.4352 11.5424 88.9414 12.1469 90.3507 12.1469C91.9183 12.1469 93.1918 11.6976 93.1918 10.2528C93.1918 9.12147 91.8569 8.74976 90.3216 8.3134C88.2723 7.70897 85.8837 6.86858 85.8837 4.03711C85.8837 1.52563 87.7455 0 90.3539 0C91.9296 0.0487434 93.4803 0.406772 94.9179 1.05372L94.2973 3.51348H94.294Z" fill="white"/>
<path d="M106.493 8.3565V0.427734H108.636V8.29831C108.636 12.4195 106.015 14.6465 102.957 14.6465C99.8995 14.6465 97.291 12.4195 97.291 8.29831V0.427734H99.4308V8.3565C99.4308 10.7581 100.966 12.2352 102.97 12.2352C104.974 12.2352 106.526 10.771 106.526 8.3565" fill="white"/>
<path d="M109.992 0.429688H120.636V2.83126H116.386V14.099H114.243V2.83126H109.992V0.429688Z" fill="white"/>
<path d="M44.671 31.7728H42.5312V18.1035H45.0298L51.5784 28.3951V18.1035H53.7214V31.7728H51.2228L44.671 21.4812V31.7728Z" fill="white"/>
<path d="M64.3257 29.2529H58.3493L57.4475 31.7708H55.2754L60.1497 18.1016H62.5868L67.4611 31.7708H65.1985L64.3257 29.2529ZM59.2188 26.8513H63.453L61.3262 20.8942L59.1994 26.8513H59.2188Z" fill="white"/>
<path d="M78.2217 32.0448C77.2521 32.0448 76.4989 31.5761 75.8008 30.4642C75.1026 29.3523 74.482 28.0045 73.8 26.8506H71.1463V31.7701H69.0098V18.1008H74.5337C75.0972 18.0873 75.6575 18.189 76.1803 18.3996C76.7031 18.6102 77.1773 18.9254 77.5741 19.3257C77.9708 19.7261 78.2816 20.2032 78.4874 20.7279C78.6933 21.2526 78.7899 21.8138 78.7712 22.3771C78.8039 23.256 78.5651 24.1236 78.0875 24.8621C77.6098 25.6006 76.9164 26.1741 76.1014 26.5047L77.4525 28.8481C77.5434 29.0359 77.6839 29.1953 77.8588 29.3092C78.0336 29.4231 78.2362 29.4872 78.4448 29.4946C78.8777 29.4328 79.2796 29.2347 79.5922 28.9289L80.2387 31.0784C79.717 31.6502 78.9941 31.9978 78.2217 32.048M71.1528 20.5024V24.5459H74.1782C75.6844 24.5459 76.6315 23.8445 76.6315 22.3771C76.6315 21.207 75.8105 20.5024 74.537 20.5024H71.1528Z" fill="white"/>
<path d="M83.9418 18.1035H81.7988V31.7728H83.9418V18.1035Z" fill="white"/>
<path d="M88.8793 25.0561L94.4647 18.1035H97.1798L91.533 24.9559L97.2444 31.7728H94.3095L88.8793 25.1725V31.7728H86.7363V18.1035H88.8793V25.0561Z" fill="white"/>
<path d="M108.281 21.7573C108.282 22.2438 108.187 22.7257 108 23.175C107.814 23.6244 107.54 24.0324 107.195 24.3754C107.752 24.6947 108.211 25.16 108.522 25.7211C108.834 26.2822 108.986 26.9178 108.963 27.5592C108.963 30.0771 107.101 31.7611 104.664 31.7611H98.7168V18.1016H104.367C106.445 18.1016 108.294 19.4494 108.294 21.754M100.86 20.5031V23.7063H104.011C105.33 23.7063 106.138 23.0825 106.138 21.9092C106.138 21.0106 105.424 20.5031 104.309 20.5031H100.847H100.86ZM100.86 25.9527V29.3757H104.522C105.889 29.3757 106.82 28.6905 106.82 27.4816C106.82 26.5119 106.012 25.9592 104.848 25.9592L100.86 25.9527Z" fill="white"/>
<path d="M118.627 29.2529H112.657L111.755 31.7708H109.576L114.457 18.1016H116.894L121.768 31.7708H119.506L118.627 29.2529ZM113.52 26.8513H117.77L115.643 20.8942L113.516 26.8513H113.52Z" fill="white"/>
<path d="M126.255 23.7858L129.468 18.1035H132.137L127.308 26.2456V31.7728H125.152V26.2844L120.217 18.1035H122.997L126.255 23.7858Z" fill="white"/>
<path d="M133.533 18.1035H142.845V20.5051H135.676V23.6275H142.118V26.0323H135.676V29.3712H142.984V31.7728H133.533V18.1035Z" fill="white"/>
<path d="M150.05 28.9995L153.928 18.1035H156.1L151.226 31.7728H148.792L143.918 18.1035H146.168L150.05 28.9995Z" fill="white"/>
<path d="M51.5961 43.7081V35.7793H53.7391V43.6369C53.7391 47.7581 51.1177 49.9851 48.06 49.9851C45.0022 49.9851 42.3809 47.7581 42.3809 43.6369V35.7793H44.5239V43.7081C44.5239 46.1096 46.0592 47.5868 48.0632 47.5868C50.0672 47.5868 51.6025 46.1226 51.6025 43.7081" fill="white"/>
<path d="M58.5219 49.4486H56.3789V35.7793H58.8775L65.426 46.0708V35.7793H67.569V49.4486H65.0705L58.5219 39.157V49.4486Z" fill="white"/>
<path d="M72.5063 35.7793H70.3633V49.4486H72.5063V35.7793Z" fill="white"/>
<path d="M80.1831 46.6753L84.065 35.7793H86.2371L81.3629 49.4486H78.9257L74.0547 35.7793H76.3044L80.1831 46.6753Z" fill="white"/>
<path d="M87.7949 35.7793H97.1039V38.1809H89.9347V41.3065H96.3766V43.7081H89.9347V47.047H97.2461V49.4486H87.7949V35.7793Z" fill="white"/>
<path d="M108.634 49.7226C107.665 49.7226 106.912 49.2539 106.213 48.142C105.515 47.0301 104.895 45.6822 104.213 44.5283H101.559V49.4543H99.416V35.7785H104.94C105.503 35.765 106.064 35.8667 106.587 36.0773C107.109 36.288 107.584 36.6031 107.98 37.0034C108.377 37.4038 108.688 37.8809 108.894 38.4056C109.1 38.9303 109.196 39.4915 109.177 40.0548C109.209 40.9326 108.969 41.7988 108.492 42.536C108.014 43.2732 107.322 43.8457 106.508 44.176L107.859 46.5194C107.947 46.7102 108.087 46.8729 108.262 46.9898C108.437 47.1067 108.641 47.1732 108.851 47.182C109.284 47.1203 109.686 46.9221 109.998 46.6163L110.645 48.7658C110.123 49.3377 109.4 49.6852 108.628 49.7355M101.559 38.1801V42.2237H104.584C106.091 42.2237 107.038 41.5223 107.038 40.0548C107.038 38.8847 106.217 38.1801 104.943 38.1801H101.559Z" fill="white"/>
<path d="M120.003 38.8638C118.809 38.1941 117.475 37.8133 116.108 37.7519C114.773 37.7519 113.719 38.1624 113.719 39.2161C113.719 40.5091 115.397 40.7967 117.133 41.3462C119.04 41.9506 121.044 42.8686 121.044 45.5255C121.044 48.1825 118.81 49.9182 116.157 49.9182C114.505 49.8778 112.886 49.4422 111.438 48.6479L111.964 46.2463C113.144 46.8928 114.65 47.4972 116.063 47.4972C117.631 47.4972 118.904 47.0479 118.904 45.6031C118.904 44.4718 117.569 44.1001 116.034 43.6637C113.985 43.0593 111.596 42.2189 111.596 39.3875C111.596 36.8889 113.458 35.3633 116.066 35.3633C117.642 35.412 119.193 35.7701 120.63 36.417L120.009 38.8768L120.003 38.8638Z" fill="white"/>
<path d="M125.28 35.7793H123.137V49.4486H125.28V35.7793Z" fill="white"/>
<path d="M126.783 35.7793H137.427V38.1809H133.177V49.4486H131.034V38.1809H126.783V35.7793Z" fill="white"/>
<path d="M143.575 41.4616L146.788 35.7793H149.458L144.632 43.9214V49.4486H142.473V43.9602L137.537 35.7793H140.317L143.575 41.4616Z" fill="white"/>
</g>
<defs>
<clipPath id="clip0_699_3226">
<rect width="156.099" height="50" fill="white"/>
</clipPath>
</defs>
</svg>
