<svg width="33" height="56" viewBox="0 0 33 56" fill="none" xmlns="http://www.w3.org/2000/svg">
<g id="Group 1">
<path id="XMLID_11_" d="M28.8839 0.5H18.1083C16.5689 0.5 16.2049 1.81782 16.2049 1.81782C16.2049 1.81782 15.8472 0.5 14.3014 0.5H3.52585L0 3.99729V39.4264C0 48.8602 7.26887 55.5 16.2049 55.5C25.1408 55.5 32.4097 48.8602 32.4097 39.4264V3.99729L28.8839 0.5ZM28.8839 39.4201C28.8839 46.3703 23.1927 51.9964 16.2049 51.9964C9.21064 51.9964 3.52585 46.3703 3.52585 39.4201V3.99729H28.8839V39.4201Z" fill="#25518E"/>
<path id="XMLID_10_" d="M10.5746 5.46644L10.7599 5.47911C10.8174 5.48545 10.8365 5.49179 10.8429 5.49179C10.8493 5.50446 10.8557 5.54881 10.8557 5.61851V7.00619C10.8557 7.22796 10.8557 7.2343 10.5938 7.25331C10.5427 7.25331 10.5107 7.29766 10.5107 7.34202V7.45607C10.5107 7.50676 10.5491 7.54478 10.6002 7.54478H11.7181C11.7692 7.54478 11.8075 7.50676 11.8075 7.45607V7.34202C11.8075 7.29132 11.7692 7.25331 11.7245 7.25331C11.469 7.2343 11.469 7.2343 11.469 7.00619V5.07992L11.4306 5.00388L11.3476 4.99121C11.0282 5.08626 10.7854 5.14962 10.5682 5.1813C10.5235 5.18764 10.4916 5.22566 10.4916 5.27001V5.37773C10.4916 5.42842 10.5299 5.46644 10.5746 5.46644Z" fill="#25518E"/>
<path id="XMLID_7_" d="M14.4418 6.67036C14.5248 6.67036 14.6015 6.64501 14.7037 6.59432L14.7228 6.58799C14.5695 6.9555 14.231 7.22163 13.8029 7.29133L13.7455 7.32935L13.7327 7.39905L13.7582 7.52577L13.8477 7.60181C14.001 7.59547 14.3012 7.54478 14.4801 7.47508C15.0933 7.22796 15.4575 6.68937 15.4575 6.02405C15.4575 5.40308 15.0997 4.99121 14.5695 4.99121C13.9435 4.99121 13.6496 5.52347 13.6496 5.88464C13.6432 6.34087 13.9818 6.67036 14.4418 6.67036ZM14.4993 5.31437C14.7995 5.31437 14.8187 5.89098 14.8187 6.00504C14.8187 6.08107 14.8123 6.14444 14.8059 6.2078C14.7484 6.23315 14.6973 6.24582 14.6398 6.24582C14.3907 6.24582 14.2629 5.99236 14.2629 5.73891C14.2629 5.59317 14.314 5.31437 14.4993 5.31437Z" fill="#25518E"/>
<path id="XMLID_6_" d="M17.6458 7.20358C17.4542 7.20358 17.3072 7.07685 17.2242 7.00082C17.1539 6.94379 17.0645 6.94379 16.9878 7.00082C16.9559 7.02616 16.8537 7.10853 16.8473 7.22893C16.8473 7.30496 16.8856 7.381 16.9623 7.44436C17.0453 7.50773 17.2178 7.5901 17.4286 7.5901C17.6969 7.5901 18.5529 7.29863 18.5529 6.62063C18.5529 6.34183 18.3868 6.11372 18.1185 6.006C18.1696 5.96798 18.2144 5.9363 18.2463 5.90462C18.3421 5.81591 18.3932 5.70185 18.3932 5.58146C18.3932 5.22662 18.1185 4.98584 17.7033 4.98584C17.4797 4.98584 17.2625 5.08089 17.1092 5.25197L16.9303 5.49275L16.9431 5.61314L17.0326 5.70185L17.1028 5.7272L17.1667 5.68918C17.2945 5.51176 17.4031 5.44206 17.5372 5.44206C17.6075 5.44206 17.78 5.46741 17.78 5.69552C17.78 5.80957 17.7289 5.96798 17.2817 6.11372C17.237 6.12639 17.2114 6.17708 17.2178 6.22144L17.2434 6.34183L17.2817 6.39886L17.352 6.41153C17.4095 6.39886 17.4797 6.37985 17.5436 6.37985C17.6841 6.37985 17.9141 6.46222 17.9141 6.7727C17.9333 6.93111 17.8949 7.20358 17.6458 7.20358Z" fill="#25518E"/>
<path id="XMLID_3_" d="M20.1015 6.89266H20.9767V7.03839C20.9767 7.22848 20.9767 7.22848 20.7211 7.24749C20.67 7.25383 20.6381 7.29185 20.6381 7.3362V7.45026C20.6381 7.50095 20.6764 7.53897 20.7275 7.53897H21.7943C21.8455 7.53897 21.8838 7.50095 21.8838 7.45026V7.34254C21.8838 7.29819 21.8455 7.25383 21.8007 7.25383C21.5772 7.23482 21.5772 7.23482 21.5772 7.05107V6.89899H21.8327C21.8838 6.89899 21.9221 6.86097 21.9221 6.81028V6.60118C21.9221 6.55049 21.8838 6.51247 21.8327 6.51247H21.5772V5.09945C21.5772 5.04876 21.5388 5.01074 21.4877 5.01074H21.2641L21.1939 5.04876C20.8553 5.4733 20.4656 5.99922 20.0376 6.61385L20.0184 6.66454V6.80395C20.0057 6.85464 20.0504 6.89266 20.1015 6.89266ZM20.9703 5.85348V6.51247H20.5295C20.702 6.24634 20.8489 6.02457 20.9703 5.85348Z" fill="#25518E"/>
<path id="XMLID_2_" d="M0 3.99658H3.53265V5.64405L0 3.99658Z" fill="#25518E"/>
<path id="XMLID_1_" d="M32.4172 3.99658H28.8845V5.64405L32.4172 3.99658Z" fill="#25518E"/>
<path id="Vector" d="M19.9943 28.9157L19.5472 28.4722L13.7474 22.8207C12.2847 21.2748 11.1733 19.5262 11.1733 17.3404C11.1733 14.3309 13.543 11.4672 17.2286 11.4672C21.8914 11.4672 23.6479 16.0036 22.4343 18.4491C21.7445 19.8366 19.8538 20.5779 18.8063 20.2168C18.6977 20.1788 18.6977 20.0204 18.7935 19.9697C19.6111 19.5389 20.269 18.6835 20.2754 17.4228C20.2818 15.9719 19.2151 14.5717 17.3308 14.5717C15.2038 14.5717 12.8979 17.2897 16.1044 20.5336C18.2569 22.713 23.0475 26.9453 24.8743 30.1068C24.9382 30.2145 25.0659 30.1955 25.117 30.0814C26.2859 27.2811 24.9637 23.9802 22.7218 22.6877C22.6323 22.637 22.6196 22.523 22.709 22.4596C24.5741 21.1798 25.1554 19.2157 25.3406 18.2907C26.4712 12.652 20.7544 7.52642 14.7439 8.59082C11.5182 9.16103 8.40754 11.1314 7.19393 15.6678C6.4977 18.2781 7.11728 20.787 8.32451 23.0172C9.12932 24.506 10.8667 26.6285 12.438 28.0857L12.8851 28.5292L18.6849 34.1806C20.1476 35.7265 21.259 37.4752 21.259 39.661C21.259 42.6704 18.8893 45.5342 15.2038 45.5342C10.5409 45.5342 8.7844 40.9978 9.99801 38.5522C10.6878 37.1647 12.5785 36.4234 13.6261 36.7846C13.7347 36.8226 13.7347 36.981 13.6388 37.0317C12.8213 37.4625 12.1633 38.3178 12.157 39.5786C12.1506 41.0295 13.2173 42.4297 15.1016 42.4297C17.2286 42.4297 19.5344 39.7117 16.3279 36.4678C14.1754 34.2883 9.38482 30.0561 7.55802 26.8946C7.49414 26.7869 7.36639 26.8059 7.31529 26.9199C6.1464 29.7203 7.46859 33.0212 9.71057 34.3137C9.8 34.3644 9.81278 34.4784 9.72335 34.5417C7.85823 35.8216 7.27697 37.7856 7.09174 38.7106C5.96117 44.3494 11.6779 49.4749 17.6885 48.4105C20.9141 47.8403 24.0248 45.8699 25.2384 41.3336C25.9346 38.7233 25.315 36.2144 24.1078 33.9842C23.303 32.5017 21.5656 30.3792 19.9943 28.9157Z" fill="#25518E"/>
</g>
</svg>
